<mxfile host="app.diagrams.net" modified="2024-04-22T12:51:10.482Z" agent="Mozilla/5.0 (Windows NT 10.0; Win64; x64) AppleWebKit/537.36 (KHTML, like Gecko) Chrome/123.0.0.0 Safari/537.36" version="24.2.7" etag="7M9E72MT2Ot4m8-K_jQi" type="github">
  <diagram name="Page-1" id="xcAeZ0c_36jicNpxhuPr">
    <mxGraphModel>
      <root>
        <mxCell id="0" />
        <mxCell id="1" parent="0" />
      </root>
    </mxGraphModel>
  </diagram>
</mxfile>
